<svg xmlns="http://www.w3.org/2000/svg" xmlns:xlink="http://www.w3.org/1999/xlink" width="1600" zoomAndPan="magnify" viewBox="0 0 1200 749.999995" height="1000" preserveAspectRatio="xMidYMid meet" version="1.2"><defs><clipPath id="da76ccdcc5"><path d="M 0 222.148438 L 1198.777344 222.148438 L 1198.777344 553.882812 L 0 553.882812 Z M 0 222.148438 "/></clipPath><clipPath id="e69ede830f"><path d="M 31.28125 253.347656 L 599.414062 253.347656 L 599.414062 523.007812 L 31.28125 523.007812 Z M 31.28125 253.347656 "/></clipPath></defs><g id="54b27a46dd"><g clip-rule="nonzero" clip-path="url(#da76ccdcc5)"><path style="fill:none;stroke-width:1.302205;stroke-linecap:butt;stroke-linejoin:miter;stroke:#000000;stroke-opacity:1;stroke-miterlimit:4;" d="M 0.000262798 -0.000285628 L 347.578355 -0.000285628 L 347.578355 96.090428 L 0.000262798 96.090428 Z M 0.000262798 -0.000285628 " transform="matrix(3.452304,0,0,3.452304,-1.168876,222.149424)"/></g><g clip-rule="nonzero" clip-path="url(#e69ede830f)"><path style=" stroke:none;fill-rule:nonzero;fill:#000000;fill-opacity:1;" d="M 31.28125 253.347656 L 599.042969 253.347656 L 599.042969 523.007812 L 31.28125 523.007812 Z M 31.28125 253.347656 "/></g><g style="fill:#ffffff;fill-opacity:1;"><g transform="translate(50.092878, 417.552014)"><path style="stroke:none" d="M 53.5625 -4.21875 C 52.445312 -3.570312 51.140625 -2.941406 49.640625 -2.328125 C 48.148438 -1.710938 46.566406 -1.15625 44.890625 -0.65625 C 43.222656 -0.15625 41.550781 0.253906 39.875 0.578125 C 38.207031 0.898438 36.644531 1.0625 35.1875 1.0625 C 30.488281 1.0625 26.265625 0.429688 22.515625 -0.828125 C 18.765625 -2.085938 15.566406 -4.019531 12.921875 -6.625 C 10.285156 -9.238281 8.25 -12.539062 6.8125 -16.53125 C 5.375 -20.519531 4.65625 -25.269531 4.65625 -30.78125 C 4.65625 -36.53125 5.488281 -41.425781 7.15625 -45.46875 C 8.832031 -49.519531 11.0625 -52.816406 13.84375 -55.359375 C 16.632812 -57.910156 19.800781 -59.757812 23.34375 -60.90625 C 26.894531 -62.050781 30.519531 -62.625 34.21875 -62.625 C 38.082031 -62.625 41.347656 -62.375 44.015625 -61.875 C 46.679688 -61.375 49.015625 -60.625 51.015625 -59.625 C 51.015625 -58.75 50.984375 -57.664062 50.921875 -56.375 C 50.867188 -55.082031 50.78125 -53.734375 50.65625 -52.328125 C 50.539062 -50.921875 50.394531 -49.53125 50.21875 -48.15625 C 50.039062 -46.78125 49.863281 -45.5625 49.6875 -44.5 L 47.40625 -44.5 L 42.828125 -57.171875 C 42.179688 -57.523438 41.097656 -57.757812 39.578125 -57.875 C 38.054688 -57.988281 36.5625 -58.046875 35.09375 -58.046875 C 32.164062 -58.046875 29.378906 -57.503906 26.734375 -56.421875 C 24.097656 -55.335938 21.796875 -53.664062 19.828125 -51.40625 C 17.867188 -49.144531 16.300781 -46.300781 15.125 -42.875 C 13.957031 -39.445312 13.375 -35.414062 13.375 -30.78125 C 13.375 -26.613281 13.941406 -22.859375 15.078125 -19.515625 C 16.222656 -16.179688 17.804688 -13.328125 19.828125 -10.953125 C 21.859375 -8.578125 24.234375 -6.742188 26.953125 -5.453125 C 29.679688 -4.160156 32.628906 -3.515625 35.796875 -3.515625 C 36.972656 -3.515625 38.113281 -3.628906 39.21875 -3.859375 C 40.332031 -4.097656 41.359375 -4.378906 42.296875 -4.703125 C 43.242188 -5.023438 44.023438 -5.363281 44.640625 -5.71875 C 45.253906 -6.070312 45.675781 -6.363281 45.90625 -6.59375 L 45.90625 -24.359375 C 44.382812 -24.472656 42.929688 -24.734375 41.546875 -25.140625 C 40.171875 -25.554688 38.8125 -26 37.46875 -26.46875 L 37.46875 -29.03125 L 59.015625 -29.03125 L 59.015625 -26.46875 C 58.429688 -26.0625 57.726562 -25.679688 56.90625 -25.328125 C 56.082031 -24.972656 54.96875 -24.648438 53.5625 -24.359375 Z M 53.5625 -4.21875 "/></g></g><g style="fill:#ffffff;fill-opacity:1;"><g transform="translate(117.255613, 417.552014)"><path style="stroke:none" d="M 44.234375 -61.5625 C 44.179688 -59.21875 44.082031 -56.859375 43.9375 -54.484375 C 43.789062 -52.109375 43.566406 -49.71875 43.265625 -47.3125 L 40.984375 -47.3125 L 37.375 -57 L 18.203125 -57 L 18.203125 -33.6875 L 32.546875 -33.6875 L 35.96875 -40.1875 L 38.171875 -40.1875 C 38.523438 -34.382812 38.523438 -28.460938 38.171875 -22.421875 L 35.96875 -22.421875 L 32.546875 -29.109375 L 18.203125 -29.109375 L 18.203125 -4.578125 L 38.4375 -4.578125 L 42.75 -15.125 L 44.9375 -15.125 C 45.351562 -12.664062 45.648438 -10.175781 45.828125 -7.65625 C 46.003906 -5.132812 46.03125 -2.582031 45.90625 0 L 2.546875 0 L 2.546875 -2.546875 C 4.597656 -3.484375 7.003906 -4.1875 9.765625 -4.65625 L 9.765625 -56.8125 C 8.585938 -57.050781 7.382812 -57.359375 6.15625 -57.734375 C 4.925781 -58.117188 3.722656 -58.546875 2.546875 -59.015625 L 2.546875 -61.5625 Z M 44.234375 -61.5625 "/></g></g><g style="fill:#ffffff;fill-opacity:1;"><g transform="translate(175.100479, 417.552014)"><path style="stroke:none" d="M 18.203125 -4.65625 C 19.554688 -4.363281 20.847656 -4.054688 22.078125 -3.734375 C 23.304688 -3.410156 24.507812 -3.015625 25.6875 -2.546875 L 25.6875 0 L 2.546875 0 L 2.546875 -2.546875 C 3.835938 -3.140625 5.066406 -3.582031 6.234375 -3.875 C 7.410156 -4.164062 8.585938 -4.425781 9.765625 -4.65625 L 9.765625 -56.8125 C 8.234375 -57.101562 6.878906 -57.441406 5.703125 -57.828125 C 4.535156 -58.210938 3.484375 -58.609375 2.546875 -59.015625 L 2.546875 -61.5625 L 10.296875 -61.5625 C 12.640625 -61.5625 15.203125 -61.675781 17.984375 -61.90625 C 20.773438 -62.144531 23.488281 -62.265625 26.125 -62.265625 C 29 -62.265625 31.679688 -61.941406 34.171875 -61.296875 C 36.660156 -60.648438 38.8125 -59.625 40.625 -58.21875 C 42.445312 -56.8125 43.867188 -55.023438 44.890625 -52.859375 C 45.921875 -50.691406 46.4375 -48.082031 46.4375 -45.03125 C 46.4375 -40.75 45.304688 -37.203125 43.046875 -34.390625 C 40.796875 -31.578125 37.734375 -29.554688 33.859375 -28.328125 C 36.378906 -24.335938 39.015625 -20.375 41.765625 -16.4375 C 44.523438 -12.507812 47.398438 -8.613281 50.390625 -4.75 L 55.140625 -2.203125 L 55.140625 0 L 44.5 0 L 41.15625 -2.46875 C 39.519531 -4.519531 38.023438 -6.523438 36.671875 -8.484375 C 35.328125 -10.453125 34.066406 -12.445312 32.890625 -14.46875 C 31.722656 -16.488281 30.625 -18.539062 29.59375 -20.625 C 28.570312 -22.707031 27.53125 -24.921875 26.46875 -27.265625 L 18.203125 -27.265625 Z M 24.1875 -57.703125 C 22.78125 -57.703125 21.617188 -57.671875 20.703125 -57.609375 C 19.796875 -57.546875 18.960938 -57.425781 18.203125 -57.25 L 18.203125 -30.953125 L 24.53125 -30.953125 C 28.582031 -30.953125 31.796875 -32.242188 34.171875 -34.828125 C 36.546875 -37.410156 37.734375 -40.8125 37.734375 -45.03125 C 37.734375 -49.375 36.472656 -52.570312 33.953125 -54.625 C 31.429688 -56.675781 28.175781 -57.703125 24.1875 -57.703125 Z M 24.1875 -57.703125 "/></g></g><g style="fill:#ffffff;fill-opacity:1;"><g transform="translate(237.780104, 417.552014)"><path style="stroke:none" d="M 2.546875 -61.5625 L 26.65625 -61.5625 L 26.65625 -59.015625 C 25.238281 -58.484375 23.828125 -58.023438 22.421875 -57.640625 C 21.015625 -57.265625 19.609375 -56.988281 18.203125 -56.8125 L 18.203125 -4.578125 L 38.4375 -4.578125 L 43.625 -18.734375 L 45.90625 -18.734375 C 46.082031 -17.503906 46.242188 -16.082031 46.390625 -14.46875 C 46.535156 -12.851562 46.648438 -11.179688 46.734375 -9.453125 C 46.828125 -7.722656 46.875 -6.035156 46.875 -4.390625 C 46.875 -2.753906 46.847656 -1.289062 46.796875 0 L 2.546875 0 L 2.546875 -2.546875 C 3.953125 -3.191406 5.238281 -3.660156 6.40625 -3.953125 C 7.582031 -4.242188 8.703125 -4.476562 9.765625 -4.65625 L 9.765625 -56.8125 C 8.410156 -57.050781 7.117188 -57.359375 5.890625 -57.734375 C 4.660156 -58.117188 3.546875 -58.546875 2.546875 -59.015625 Z M 2.546875 -61.5625 "/></g></g><g style="fill:#ffffff;fill-opacity:1;"><g transform="translate(292.724166, 417.552014)"><path style="stroke:none" d="M 19.53125 0 L 0 0 L 0 -2.546875 C 2.113281 -3.484375 4.222656 -4.1875 6.328125 -4.65625 L 28.578125 -62.625 L 31.140625 -62.625 L 53.390625 -4.65625 C 54.554688 -4.425781 55.710938 -4.164062 56.859375 -3.875 C 58.003906 -3.582031 59.078125 -3.140625 60.078125 -2.546875 L 60.078125 0 L 37.5625 0 L 37.5625 -2.546875 C 38.726562 -3.015625 39.925781 -3.425781 41.15625 -3.78125 C 42.394531 -4.132812 43.597656 -4.425781 44.765625 -4.65625 L 38.78125 -20.75 L 17.765625 -20.75 L 11.96875 -4.65625 C 14.425781 -4.3125 16.945312 -3.609375 19.53125 -2.546875 Z M 19.53125 -25.328125 L 37.296875 -25.328125 L 30.34375 -43.96875 L 28.671875 -51.546875 L 28.5 -51.546875 L 26.296875 -43.796875 Z M 19.53125 -25.328125 "/></g></g><g style="fill:#ffffff;fill-opacity:1;"><g transform="translate(359.44735, 417.552014)"><path style="stroke:none" d="M 48.109375 -16 L 50.390625 -16 C 50.691406 -14.363281 50.957031 -12.296875 51.1875 -9.796875 C 51.425781 -7.304688 51.484375 -4.890625 51.359375 -2.546875 C 50.484375 -1.847656 49.425781 -1.273438 48.1875 -0.828125 C 46.957031 -0.390625 45.65625 -0.0234375 44.28125 0.265625 C 42.90625 0.554688 41.5 0.757812 40.0625 0.875 C 38.625 1 37.257812 1.0625 35.96875 1.0625 C 31.039062 1.0625 26.640625 0.429688 22.765625 -0.828125 C 18.898438 -2.085938 15.632812 -4.007812 12.96875 -6.59375 C 10.300781 -9.175781 8.25 -12.472656 6.8125 -16.484375 C 5.375 -20.503906 4.65625 -25.269531 4.65625 -30.78125 C 4.65625 -36.53125 5.445312 -41.410156 7.03125 -45.421875 C 8.613281 -49.441406 10.753906 -52.726562 13.453125 -55.28125 C 16.148438 -57.832031 19.285156 -59.691406 22.859375 -60.859375 C 26.441406 -62.035156 30.195312 -62.625 34.125 -62.625 C 38 -62.625 41.253906 -62.375 43.890625 -61.875 C 46.523438 -61.375 48.84375 -60.625 50.84375 -59.625 C 50.84375 -58.6875 50.8125 -57.585938 50.75 -56.328125 C 50.6875 -55.066406 50.597656 -53.734375 50.484375 -52.328125 C 50.367188 -50.921875 50.222656 -49.539062 50.046875 -48.1875 C 49.867188 -46.84375 49.691406 -45.613281 49.515625 -44.5 L 47.234375 -44.5 L 42.65625 -57.171875 C 42.007812 -57.523438 40.9375 -57.757812 39.4375 -57.875 C 37.945312 -57.988281 36.46875 -58.046875 35 -58.046875 C 32.070312 -58.046875 29.300781 -57.503906 26.6875 -56.421875 C 24.082031 -55.335938 21.796875 -53.664062 19.828125 -51.40625 C 17.867188 -49.144531 16.300781 -46.300781 15.125 -42.875 C 13.957031 -39.445312 13.375 -35.414062 13.375 -30.78125 C 13.375 -26.613281 13.898438 -22.84375 14.953125 -19.46875 C 16.003906 -16.101562 17.523438 -13.234375 19.515625 -10.859375 C 21.515625 -8.484375 23.953125 -6.664062 26.828125 -5.40625 C 29.703125 -4.144531 32.957031 -3.515625 36.59375 -3.515625 C 38.519531 -3.515625 40.128906 -3.660156 41.421875 -3.953125 C 42.710938 -4.242188 43.5625 -4.625 43.96875 -5.09375 Z M 48.109375 -16 "/></g></g><g style="fill:#ffffff;fill-opacity:1;"><g transform="translate(422.742275, 417.552014)"><path style="stroke:none" d="M 24.796875 0 L 2.546875 0 L 2.546875 -2.546875 C 4.890625 -3.484375 7.296875 -4.1875 9.765625 -4.65625 L 9.765625 -56.8125 C 7.003906 -57.226562 4.597656 -57.960938 2.546875 -59.015625 L 2.546875 -61.5625 L 24.796875 -61.5625 L 24.796875 -59.015625 C 23.804688 -58.484375 22.753906 -58.039062 21.640625 -57.6875 C 20.523438 -57.34375 19.378906 -57.050781 18.203125 -56.8125 L 18.203125 -33.859375 L 45.828125 -33.859375 L 45.828125 -56.8125 C 44.585938 -57.101562 43.425781 -57.425781 42.34375 -57.78125 C 41.257812 -58.132812 40.222656 -58.546875 39.234375 -59.015625 L 39.234375 -61.5625 L 61.484375 -61.5625 L 61.484375 -59.015625 C 60.421875 -58.429688 59.257812 -57.976562 58 -57.65625 C 56.738281 -57.332031 55.492188 -57.050781 54.265625 -56.8125 L 54.265625 -4.65625 C 55.617188 -4.425781 56.910156 -4.132812 58.140625 -3.78125 C 59.367188 -3.425781 60.484375 -3.015625 61.484375 -2.546875 L 61.484375 0 L 39.234375 0 L 39.234375 -2.546875 C 41.335938 -3.484375 43.535156 -4.1875 45.828125 -4.65625 L 45.828125 -29.28125 L 18.203125 -29.28125 L 18.203125 -4.65625 C 19.378906 -4.425781 20.523438 -4.132812 21.640625 -3.78125 C 22.753906 -3.425781 23.804688 -3.015625 24.796875 -2.546875 Z M 24.796875 0 "/></g></g><g style="fill:#000000;fill-opacity:1;"><g transform="translate(740.752469, 417.552014)"><path style="stroke:none" d="M 2.546875 0 L 2.546875 -2.546875 C 4.597656 -3.484375 7.003906 -4.1875 9.765625 -4.65625 L 9.765625 -56.8125 C 8.410156 -57.101562 7.117188 -57.441406 5.890625 -57.828125 C 4.660156 -58.210938 3.546875 -58.609375 2.546875 -59.015625 L 2.546875 -61.5625 L 11.515625 -61.5625 C 12.515625 -61.5625 13.6875 -61.59375 15.03125 -61.65625 C 16.382812 -61.71875 17.78125 -61.789062 19.21875 -61.875 C 20.65625 -61.957031 22.03125 -62.039062 23.34375 -62.125 C 24.664062 -62.21875 25.769531 -62.265625 26.65625 -62.265625 C 36.625 -62.265625 44.289062 -59.597656 49.65625 -54.265625 C 55.019531 -48.929688 57.703125 -41.367188 57.703125 -31.578125 C 57.703125 -26.941406 57.039062 -22.644531 55.71875 -18.6875 C 54.394531 -14.726562 52.382812 -11.3125 49.6875 -8.4375 C 46.988281 -5.570312 43.570312 -3.316406 39.4375 -1.671875 C 35.3125 -0.0234375 30.429688 0.796875 24.796875 0.796875 C 23.921875 0.796875 22.925781 0.75 21.8125 0.65625 C 20.695312 0.570312 19.523438 0.484375 18.296875 0.390625 C 17.066406 0.304688 15.820312 0.21875 14.5625 0.125 C 13.300781 0.0390625 12.113281 0 11 0 Z M 25.421875 -57.703125 C 23.890625 -57.703125 22.421875 -57.6875 21.015625 -57.65625 C 19.609375 -57.625 18.492188 -57.519531 17.671875 -57.34375 L 17.671875 -4.046875 C 17.972656 -3.984375 18.503906 -3.9375 19.265625 -3.90625 C 20.023438 -3.882812 20.84375 -3.859375 21.71875 -3.828125 C 22.601562 -3.796875 23.441406 -3.78125 24.234375 -3.78125 C 25.023438 -3.78125 25.597656 -3.78125 25.953125 -3.78125 C 29.992188 -3.78125 33.421875 -4.539062 36.234375 -6.0625 C 39.046875 -7.59375 41.347656 -9.628906 43.140625 -12.171875 C 44.929688 -14.722656 46.234375 -17.671875 47.046875 -21.015625 C 47.867188 -24.359375 48.28125 -27.878906 48.28125 -31.578125 C 48.28125 -34.453125 47.882812 -37.425781 47.09375 -40.5 C 46.300781 -43.582031 45.007812 -46.394531 43.21875 -48.9375 C 41.4375 -51.488281 39.078125 -53.585938 36.140625 -55.234375 C 33.210938 -56.878906 29.640625 -57.703125 25.421875 -57.703125 Z M 25.421875 -57.703125 "/></g></g><g style="fill:#000000;fill-opacity:1;"><g transform="translate(802.988534, 417.552014)"><path style="stroke:none" d="M 44.234375 -61.5625 C 44.179688 -59.21875 44.082031 -56.859375 43.9375 -54.484375 C 43.789062 -52.109375 43.566406 -49.71875 43.265625 -47.3125 L 40.984375 -47.3125 L 37.375 -57 L 18.203125 -57 L 18.203125 -33.6875 L 32.546875 -33.6875 L 35.96875 -40.1875 L 38.171875 -40.1875 C 38.523438 -34.382812 38.523438 -28.460938 38.171875 -22.421875 L 35.96875 -22.421875 L 32.546875 -29.109375 L 18.203125 -29.109375 L 18.203125 -4.578125 L 38.4375 -4.578125 L 42.75 -15.125 L 44.9375 -15.125 C 45.351562 -12.664062 45.648438 -10.175781 45.828125 -7.65625 C 46.003906 -5.132812 46.03125 -2.582031 45.90625 0 L 2.546875 0 L 2.546875 -2.546875 C 4.597656 -3.484375 7.003906 -4.1875 9.765625 -4.65625 L 9.765625 -56.8125 C 8.585938 -57.050781 7.382812 -57.359375 6.15625 -57.734375 C 4.925781 -58.117188 3.722656 -58.546875 2.546875 -59.015625 L 2.546875 -61.5625 Z M 44.234375 -61.5625 "/></g></g><g style="fill:#000000;fill-opacity:1;"><g transform="translate(854.148679, 417.552014)"><path style="stroke:none" d="M 13.1875 -6.0625 C 13.894531 -5.363281 14.804688 -4.765625 15.921875 -4.265625 C 17.035156 -3.765625 18.707031 -3.515625 20.9375 -3.515625 C 22.8125 -3.515625 24.566406 -3.765625 26.203125 -4.265625 C 27.847656 -4.765625 29.269531 -5.5 30.46875 -6.46875 C 31.675781 -7.4375 32.628906 -8.609375 33.328125 -9.984375 C 34.035156 -11.359375 34.390625 -12.925781 34.390625 -14.6875 C 34.390625 -17.03125 33.671875 -18.992188 32.234375 -20.578125 C 30.796875 -22.160156 29.003906 -23.566406 26.859375 -24.796875 C 24.722656 -26.035156 22.394531 -27.238281 19.875 -28.40625 C 17.351562 -29.582031 15.019531 -30.972656 12.875 -32.578125 C 10.738281 -34.191406 8.953125 -36.128906 7.515625 -38.390625 C 6.078125 -40.648438 5.359375 -43.476562 5.359375 -46.875 C 5.359375 -49.34375 5.796875 -51.539062 6.671875 -53.46875 C 7.554688 -55.40625 8.804688 -57.046875 10.421875 -58.390625 C 12.035156 -59.742188 13.957031 -60.785156 16.1875 -61.515625 C 18.414062 -62.253906 20.90625 -62.625 23.65625 -62.625 C 27.238281 -62.625 30.507812 -62.34375 33.46875 -61.78125 C 36.425781 -61.226562 38.753906 -60.539062 40.453125 -59.71875 C 40.453125 -58.71875 40.378906 -57.554688 40.234375 -56.234375 C 40.085938 -54.921875 39.910156 -53.5625 39.703125 -52.15625 C 39.503906 -50.75 39.285156 -49.382812 39.046875 -48.0625 C 38.816406 -46.75 38.582031 -45.59375 38.34375 -44.59375 L 36.0625 -44.59375 L 32.546875 -56.640625 C 31.484375 -57.109375 30.144531 -57.457031 28.53125 -57.6875 C 26.925781 -57.925781 25.210938 -58.046875 23.390625 -58.046875 C 20.398438 -58.046875 17.992188 -57.207031 16.171875 -55.53125 C 14.359375 -53.863281 13.453125 -51.535156 13.453125 -48.546875 C 13.453125 -46.140625 14.171875 -44.113281 15.609375 -42.46875 C 17.046875 -40.832031 18.847656 -39.367188 21.015625 -38.078125 C 23.191406 -36.796875 25.523438 -35.550781 28.015625 -34.34375 C 30.503906 -33.144531 32.832031 -31.753906 35 -30.171875 C 37.175781 -28.585938 38.976562 -26.707031 40.40625 -24.53125 C 41.84375 -22.363281 42.5625 -19.671875 42.5625 -16.453125 C 42.5625 -13.804688 42.078125 -11.398438 41.109375 -9.234375 C 40.148438 -7.066406 38.757812 -5.21875 36.9375 -3.6875 C 35.125 -2.164062 32.894531 -0.992188 30.25 -0.171875 C 27.613281 0.648438 24.625 1.0625 21.28125 1.0625 C 17.59375 1.0625 14.28125 0.625 11.34375 -0.25 C 8.414062 -1.132812 6.332031 -2.078125 5.09375 -3.078125 C 5.15625 -4.078125 5.257812 -5.28125 5.40625 -6.6875 C 5.550781 -8.09375 5.726562 -9.539062 5.9375 -11.03125 C 6.144531 -12.53125 6.363281 -13.984375 6.59375 -15.390625 C 6.832031 -16.796875 7.066406 -18 7.296875 -19 L 9.59375 -19 Z M 13.1875 -6.0625 "/></g></g><g style="fill:#000000;fill-opacity:1;"><g transform="translate(901.265268, 417.552014)"><path style="stroke:none" d="M 26.734375 0 L 4.21875 0 L 4.21875 -2.546875 C 6.507812 -3.609375 8.859375 -4.3125 11.265625 -4.65625 L 11.265625 -56.8125 C 10.085938 -57.050781 8.910156 -57.359375 7.734375 -57.734375 C 6.566406 -58.117188 5.394531 -58.546875 4.21875 -59.015625 L 4.21875 -61.5625 L 26.734375 -61.5625 L 26.734375 -59.015625 C 25.679688 -58.546875 24.535156 -58.117188 23.296875 -57.734375 C 22.066406 -57.359375 20.867188 -57.050781 19.703125 -56.8125 L 19.703125 -4.65625 C 20.929688 -4.425781 22.160156 -4.132812 23.390625 -3.78125 C 24.628906 -3.425781 25.742188 -3.015625 26.734375 -2.546875 Z M 26.734375 0 "/></g></g><g style="fill:#000000;fill-opacity:1;"><g transform="translate(932.207528, 417.552014)"><path style="stroke:none" d="M 53.5625 -4.21875 C 52.445312 -3.570312 51.140625 -2.941406 49.640625 -2.328125 C 48.148438 -1.710938 46.566406 -1.15625 44.890625 -0.65625 C 43.222656 -0.15625 41.550781 0.253906 39.875 0.578125 C 38.207031 0.898438 36.644531 1.0625 35.1875 1.0625 C 30.488281 1.0625 26.265625 0.429688 22.515625 -0.828125 C 18.765625 -2.085938 15.566406 -4.019531 12.921875 -6.625 C 10.285156 -9.238281 8.25 -12.539062 6.8125 -16.53125 C 5.375 -20.519531 4.65625 -25.269531 4.65625 -30.78125 C 4.65625 -36.53125 5.488281 -41.425781 7.15625 -45.46875 C 8.832031 -49.519531 11.0625 -52.816406 13.84375 -55.359375 C 16.632812 -57.910156 19.800781 -59.757812 23.34375 -60.90625 C 26.894531 -62.050781 30.519531 -62.625 34.21875 -62.625 C 38.082031 -62.625 41.347656 -62.375 44.015625 -61.875 C 46.679688 -61.375 49.015625 -60.625 51.015625 -59.625 C 51.015625 -58.75 50.984375 -57.664062 50.921875 -56.375 C 50.867188 -55.082031 50.78125 -53.734375 50.65625 -52.328125 C 50.539062 -50.921875 50.394531 -49.53125 50.21875 -48.15625 C 50.039062 -46.78125 49.863281 -45.5625 49.6875 -44.5 L 47.40625 -44.5 L 42.828125 -57.171875 C 42.179688 -57.523438 41.097656 -57.757812 39.578125 -57.875 C 38.054688 -57.988281 36.5625 -58.046875 35.09375 -58.046875 C 32.164062 -58.046875 29.378906 -57.503906 26.734375 -56.421875 C 24.097656 -55.335938 21.796875 -53.664062 19.828125 -51.40625 C 17.867188 -49.144531 16.300781 -46.300781 15.125 -42.875 C 13.957031 -39.445312 13.375 -35.414062 13.375 -30.78125 C 13.375 -26.613281 13.941406 -22.859375 15.078125 -19.515625 C 16.222656 -16.179688 17.804688 -13.328125 19.828125 -10.953125 C 21.859375 -8.578125 24.234375 -6.742188 26.953125 -5.453125 C 29.679688 -4.160156 32.628906 -3.515625 35.796875 -3.515625 C 36.972656 -3.515625 38.113281 -3.628906 39.21875 -3.859375 C 40.332031 -4.097656 41.359375 -4.378906 42.296875 -4.703125 C 43.242188 -5.023438 44.023438 -5.363281 44.640625 -5.71875 C 45.253906 -6.070312 45.675781 -6.363281 45.90625 -6.59375 L 45.90625 -24.359375 C 44.382812 -24.472656 42.929688 -24.734375 41.546875 -25.140625 C 40.171875 -25.554688 38.8125 -26 37.46875 -26.46875 L 37.46875 -29.03125 L 59.015625 -29.03125 L 59.015625 -26.46875 C 58.429688 -26.0625 57.726562 -25.679688 56.90625 -25.328125 C 56.082031 -24.972656 54.96875 -24.648438 53.5625 -24.359375 Z M 53.5625 -4.21875 "/></g></g><g style="fill:#000000;fill-opacity:1;"><g transform="translate(992.685542, 417.552014)"><path style="stroke:none" d="M 42.828125 -61.5625 L 61.828125 -61.5625 L 61.828125 -59.015625 C 59.367188 -57.367188 56.96875 -56.195312 54.625 -55.5 L 54.625 1.0625 L 49.609375 1.0625 L 17.671875 -47.40625 L 14.25 -54.265625 L 13.984375 -54.265625 L 14.78125 -47.40625 L 14.78125 -5.625 C 17.175781 -4.976562 19.429688 -3.953125 21.546875 -2.546875 L 21.546875 0 L 2.546875 0 L 2.546875 -2.546875 C 3.609375 -3.191406 4.738281 -3.765625 5.9375 -4.265625 C 7.132812 -4.765625 8.410156 -5.21875 9.765625 -5.625 L 9.765625 -56.03125 C 8.585938 -56.5 7.425781 -56.992188 6.28125 -57.515625 C 5.144531 -58.046875 4.078125 -58.578125 3.078125 -59.109375 L 3.078125 -61.5625 L 17.9375 -61.5625 L 45.640625 -19.796875 L 49.6875 -12.21875 L 50.046875 -12.21875 L 49.609375 -19.796875 L 49.609375 -55.5 C 48.378906 -56.03125 47.191406 -56.585938 46.046875 -57.171875 C 44.898438 -57.753906 43.828125 -58.367188 42.828125 -59.015625 Z M 42.828125 -61.5625 "/></g></g></g></svg>